# xmcd
#
# Track frame offsets:
#	150
#	13255
#	30285
#	43360
#	58247
#	72905
#	88930
#	100295
#	120405
#	131395
#
# Disc length: 1944 seconds
#
# Revision: 8
# Processed by: cddbd v1.5.2PL0 Copyright (c) Steve Scherf et al.
# Submitted via: EasyCDDAExtractor 15.3.0.1
#
DISCID=8807960a
DTITLE=Selena - Anthology - CD 2 - Mariachi
DYEAR=1998
DGENRE=Latin
TTITLE0=El Ramalazo
TTITLE1=Dame Tu Amor
TTITLE2=Pa' Que Me Sirve La Vida
TTITLE3=Diferentes
TTITLE4=Siempre Hace Frio
TTITLE5=Que Creias
TTITLE6=Quiero Estar Contigo
TTITLE7=Rama Caida
TTITLE8=Sabes
TTITLE9=Tu Solo Tu
EXTD=
EXTT0=
EXTT1=
EXTT2=
EXTT3=
EXTT4=
EXTT5=
EXTT6=
EXTT7=
EXTT8=
EXTT9=
PLAYORDER=
